<mxfile host="app.diagrams.net" modified="2023-10-25T17:21:44.988Z" agent="Mozilla/5.0 (Windows NT 10.0; Win64; x64) AppleWebKit/537.36 (KHTML, like Gecko) Chrome/118.0.0.0 Safari/537.36 Edg/118.0.2088.61" etag="WmRF0LJnagw8eqTybqhS" version="22.0.8" type="google">
  <diagram name="Page-1" id="elfbh7hAorOlY0CusmZ9">
    <mxGraphModel dx="473" dy="1011" grid="0" gridSize="10" guides="1" tooltips="1" connect="1" arrows="1" fold="1" page="0" pageScale="1" pageWidth="850" pageHeight="1100" math="0" shadow="0">
      <root>
        <mxCell id="0" />
        <mxCell id="1" parent="0" />
        <mxCell id="v4YlhjPdPyAGps-uwruz-3" value="" style="edgeStyle=none;curved=1;rounded=0;orthogonalLoop=1;jettySize=auto;html=1;fontSize=12;startSize=8;endSize=8;" edge="1" parent="1" source="v4YlhjPdPyAGps-uwruz-1" target="v4YlhjPdPyAGps-uwruz-2">
          <mxGeometry relative="1" as="geometry" />
        </mxCell>
        <mxCell id="v4YlhjPdPyAGps-uwruz-1" value="start&amp;nbsp;" style="ellipse;whiteSpace=wrap;html=1;fontSize=16;" vertex="1" parent="1">
          <mxGeometry x="249" y="-32" width="120" height="59" as="geometry" />
        </mxCell>
        <mxCell id="v4YlhjPdPyAGps-uwruz-5" value="" style="edgeStyle=none;curved=1;rounded=0;orthogonalLoop=1;jettySize=auto;html=1;fontSize=12;startSize=8;endSize=8;" edge="1" parent="1" source="v4YlhjPdPyAGps-uwruz-2" target="v4YlhjPdPyAGps-uwruz-4">
          <mxGeometry relative="1" as="geometry" />
        </mxCell>
        <mxCell id="v4YlhjPdPyAGps-uwruz-2" value="read n" style="whiteSpace=wrap;html=1;fontSize=16;" vertex="1" parent="1">
          <mxGeometry x="252" y="60" width="120" height="51" as="geometry" />
        </mxCell>
        <mxCell id="v4YlhjPdPyAGps-uwruz-12" value="" style="edgeStyle=none;curved=1;rounded=0;orthogonalLoop=1;jettySize=auto;html=1;fontSize=12;startSize=8;endSize=8;" edge="1" parent="1" source="v4YlhjPdPyAGps-uwruz-4" target="v4YlhjPdPyAGps-uwruz-11">
          <mxGeometry relative="1" as="geometry" />
        </mxCell>
        <mxCell id="v4YlhjPdPyAGps-uwruz-4" value="read n" style="shape=parallelogram;perimeter=parallelogramPerimeter;whiteSpace=wrap;html=1;fixedSize=1;fontSize=16;" vertex="1" parent="1">
          <mxGeometry x="236" y="148" width="152" height="60" as="geometry" />
        </mxCell>
        <mxCell id="v4YlhjPdPyAGps-uwruz-17" value="" style="edgeStyle=none;curved=1;rounded=0;orthogonalLoop=1;jettySize=auto;html=1;fontSize=12;startSize=8;endSize=8;" edge="1" parent="1" source="v4YlhjPdPyAGps-uwruz-11" target="v4YlhjPdPyAGps-uwruz-16">
          <mxGeometry relative="1" as="geometry" />
        </mxCell>
        <mxCell id="v4YlhjPdPyAGps-uwruz-11" value="for(i=1to&lt;br&gt;i&amp;lt;=n)" style="rhombus;whiteSpace=wrap;html=1;fontSize=16;" vertex="1" parent="1">
          <mxGeometry x="277" y="237" width="80" height="80" as="geometry" />
        </mxCell>
        <mxCell id="v4YlhjPdPyAGps-uwruz-13" value="" style="endArrow=none;html=1;rounded=0;fontSize=12;startSize=8;endSize=8;curved=1;" edge="1" parent="1">
          <mxGeometry width="50" height="50" relative="1" as="geometry">
            <mxPoint x="201" y="278" as="sourcePoint" />
            <mxPoint x="276" y="278" as="targetPoint" />
          </mxGeometry>
        </mxCell>
        <mxCell id="v4YlhjPdPyAGps-uwruz-14" value="" style="endArrow=none;html=1;rounded=0;fontSize=12;startSize=8;endSize=8;curved=1;" edge="1" parent="1">
          <mxGeometry width="50" height="50" relative="1" as="geometry">
            <mxPoint x="199" y="364" as="sourcePoint" />
            <mxPoint x="199" y="280" as="targetPoint" />
          </mxGeometry>
        </mxCell>
        <mxCell id="v4YlhjPdPyAGps-uwruz-16" value="sum=sum+1" style="whiteSpace=wrap;html=1;fontSize=16;" vertex="1" parent="1">
          <mxGeometry x="255" y="333" width="120" height="60" as="geometry" />
        </mxCell>
        <mxCell id="v4YlhjPdPyAGps-uwruz-26" value="" style="edgeStyle=none;curved=1;rounded=0;orthogonalLoop=1;jettySize=auto;html=1;fontSize=12;startSize=8;endSize=8;" edge="1" parent="1" source="v4YlhjPdPyAGps-uwruz-18" target="v4YlhjPdPyAGps-uwruz-25">
          <mxGeometry relative="1" as="geometry" />
        </mxCell>
        <mxCell id="v4YlhjPdPyAGps-uwruz-18" value="print sum" style="whiteSpace=wrap;html=1;fontSize=16;" vertex="1" parent="1">
          <mxGeometry x="317" y="464" width="120" height="60" as="geometry" />
        </mxCell>
        <mxCell id="v4YlhjPdPyAGps-uwruz-20" value="" style="endArrow=classic;html=1;rounded=0;fontSize=12;startSize=8;endSize=8;curved=1;" edge="1" parent="1">
          <mxGeometry width="50" height="50" relative="1" as="geometry">
            <mxPoint x="494" y="492" as="sourcePoint" />
            <mxPoint x="438" y="492" as="targetPoint" />
          </mxGeometry>
        </mxCell>
        <mxCell id="v4YlhjPdPyAGps-uwruz-22" value="" style="endArrow=none;html=1;rounded=0;fontSize=12;startSize=8;endSize=8;curved=1;" edge="1" parent="1">
          <mxGeometry width="50" height="50" relative="1" as="geometry">
            <mxPoint x="495" y="489" as="sourcePoint" />
            <mxPoint x="495" y="289" as="targetPoint" />
          </mxGeometry>
        </mxCell>
        <mxCell id="v4YlhjPdPyAGps-uwruz-24" value="" style="endArrow=none;html=1;rounded=0;fontSize=12;startSize=8;endSize=8;curved=1;" edge="1" parent="1">
          <mxGeometry width="50" height="50" relative="1" as="geometry">
            <mxPoint x="355" y="277" as="sourcePoint" />
            <mxPoint x="494" y="285" as="targetPoint" />
          </mxGeometry>
        </mxCell>
        <mxCell id="v4YlhjPdPyAGps-uwruz-25" value="end" style="ellipse;whiteSpace=wrap;html=1;fontSize=16;" vertex="1" parent="1">
          <mxGeometry x="339" y="557" width="80" height="46" as="geometry" />
        </mxCell>
        <mxCell id="v4YlhjPdPyAGps-uwruz-27" value="" style="endArrow=classic;html=1;rounded=0;fontSize=12;startSize=8;endSize=8;curved=1;" edge="1" parent="1">
          <mxGeometry width="50" height="50" relative="1" as="geometry">
            <mxPoint x="197" y="277" as="sourcePoint" />
            <mxPoint x="275" y="277" as="targetPoint" />
          </mxGeometry>
        </mxCell>
        <mxCell id="v4YlhjPdPyAGps-uwruz-28" value="" style="endArrow=none;html=1;rounded=0;fontSize=12;startSize=8;endSize=8;curved=1;entryX=0;entryY=0.5;entryDx=0;entryDy=0;" edge="1" parent="1" target="v4YlhjPdPyAGps-uwruz-16">
          <mxGeometry width="50" height="50" relative="1" as="geometry">
            <mxPoint x="202" y="364" as="sourcePoint" />
            <mxPoint x="252" y="314" as="targetPoint" />
          </mxGeometry>
        </mxCell>
        <mxCell id="v4YlhjPdPyAGps-uwruz-29" value="no" style="text;html=1;align=center;verticalAlign=middle;resizable=0;points=[];autosize=1;strokeColor=none;fillColor=none;fontSize=16;" vertex="1" parent="1">
          <mxGeometry x="398" y="250" width="36" height="31" as="geometry" />
        </mxCell>
        <mxCell id="v4YlhjPdPyAGps-uwruz-30" value="yes" style="text;html=1;align=center;verticalAlign=middle;resizable=0;points=[];autosize=1;strokeColor=none;fillColor=none;fontSize=16;" vertex="1" parent="1">
          <mxGeometry x="338" y="291" width="43" height="31" as="geometry" />
        </mxCell>
      </root>
    </mxGraphModel>
  </diagram>
</mxfile>
